

          888    d8P         d8888 8888888b.  d8b 888b    888        d8888 
          888   d8P         d88888 888   Y88b Y8P 8888b   888       d88888 
          888  d8P         d88P888 888    888     88888b  888      d88P888 
          888d88K         d88P 888 888   d88P 888 888Y88b 888     d88P 888 
          8888888b       d88P  888 8888888P"  888 888 Y88b888    d88P  888 
          888  Y88b     d88P   888 888 T88b   888 888  Y88888   d88P   888 
          888   Y88b   d8888888888 888  T88b  888 888   Y8888  d8888888888 
          888    Y88b d88P     888 888   T88b 888 888    Y888 d88P     888 
              
                      Roger.Dodger.2002.DVDRip.XviD-KARiNA 
                                                             
Synopsis.

Roger Dodger | USA | 2002 | Directed by Dylan Kidd
                                  
First-time writer-director Dylan Kidd takes a supremely jaded view of women, relationships, and sex in this edgy drama, which is reminiscent of the films of Neil LaBute. Campbell Scott portrays the eponymous Roger, a hotshot advertising executive whose recent, ill-fated affair with his attractive, older boss (Isabella Rossellini) seems to have undone his sense of his own masculinity. This leads him into a downward spiral of alcohol abuse and resentment toward the opposite sex that comes to a head when he takes his visiting 16-year-old nephew (Jesse Eisenberg) out on the town with the goal of helping him lose his virginity. Dialogue drives Roger Dodger -- Scott, in a dead-on performance, delivers brilliantly acerbic diatribes about the battle of the sexes with cocky confidence and the zeal of the converted. Smug and arrogant, he’s a mentor from hell who spews out his secret frustrations onto his naïve protégé with a force that will make some viewers cringe. Yet, we gradually see this monster’s façade begin to crack. In a scene in which Roger and his nephew encounter two attractive and  available singles (Jennifer Beals and Elizabeth Berkley) at a bar, Roger’s slick witticisms are no match for the boy’s innocent romanticism. Roger Dodger stops short of the bleak alienation of LaBute's In the Company of Men or Your Friends & Neighbors, but it nonetheless avoids any easy catharsis. Roger may not be likable, but he rings true, and understanding him ultimately becomes more important than sympathizing with him.

IMdB: http://www.imdb.com/title/tt0299117/ | Rating: 7.2 / 10 (7,863 votes)
                                     
General.
                                                                  
Complete name                    : Roger.Dodger.2002.DVDRip.XviD-KARiNA.avi
Format                           : AVI
File size                        : 1.37 GB
Duration                         : 1hr 43mn
Overall bit rate                 : 1 866 Kbps
Source                           : Lions Gate NTSC DVD9
                                       
Video.                         

Format                           : MPEG-4 Visual
Codec ID                         : XVID
Bit rate                         : 1 411 Kbps
Width                            : 720 pixels
Height                           : 400 pixels
Display aspect ratio             : 16:9
Frame rate                       : 23.976 fps
Resolution                       : 8 bits
Colorimetry                      : 4:2:0
Scan type                        : Progressive
Bits/(Pixel*Frame)               : 0.204
Stream size                      : 529 MiB (76%)

Audio.                           

Format                           : AC-3
Bit rate mode                    : Constant
Bit rate                         : 448 Kbps
Channel(s)                       : 6 channels
Channel positions                : Front: L C R, Surround: L R, LFE
Sampling rate                    : 48.0 KHz
Stream size                      : 168 MiB (24%)
Language                         : English

KARiNA.